<svg data-reference-mode="full_bleed_video_peak" data-trigger="补充素材与人物同时保留" xmlns="http://www.w3.org/2000/svg" width="1280" height="720" viewBox="0 0 1280 720" data-scene-id="pip_rect_only"><metadata>{&quot;designSystemId&quot;:&quot;dahui-video-system&quot;,&quot;designSystemVersion&quot;:&quot;1.6.0&quot;,&quot;designDigest&quot;:&quot;f34eca3e7a2e130fb91d594741efe3995ea05037ff2ab1bbea22b1d2285d918f&quot;,&quot;implementationDigest&quot;:&quot;df98a165e49f148e31c197c307c5503834f41f7a6b72b5cfa754db725996c43c&quot;,&quot;rendererCodeSha256&quot;:&quot;f157de1f801dc7b3550f70d209c4f6c14c61eadee5b5fb72a41ed97c5313c079&quot;,&quot;sceneId&quot;:&quot;pip_rect_only&quot;,&quot;layoutId&quot;:&quot;corner_safe&quot;,&quot;layoutTemplate&quot;:&quot;corner_safe&quot;,&quot;componentIds&quot;:[&quot;pip_rect&quot;],&quot;modeSelection&quot;:{&quot;show&quot;:&quot;tool-share&quot;,&quot;aspectRatio&quot;:&quot;landscape-16x9&quot;,&quot;language&quot;:&quot;zh&quot;,&quot;surface&quot;:&quot;footage&quot;,&quot;density&quot;:&quot;standard&quot;},&quot;state&quot;:&quot;peak&quot;,&quot;resolvedFonts&quot;:{&quot;display&quot;:&quot;青鸟华光标题黑体&quot;,&quot;subtitlePrimary&quot;:&quot;方正粗金陵简体&quot;,&quot;subtitleSecondary&quot;:&quot;方正粗金陵简体&quot;,&quot;label&quot;:&quot;思源黑体 CN Light&quot;,&quot;body&quot;:&quot;思源黑体 CN Light&quot;,&quot;coverTitle&quot;:&quot;Aa封神榜书&quot;}}</metadata><g data-role="editorial-footage-backdrop"><rect width="1280" height="720" fill="#F2EFE8"/><ellipse cx="345.6" cy="237.60000000000002" rx="486.4" ry="331.2" fill="#FFFFFF" opacity="0.58"/><rect x="716.8000000000001" y="57.6" width="537.6" height="475.20000000000005" fill="#FBF8F1" opacity="0.42"/><line x1="716.8000000000001" y1="155.016" x2="1254.4" y2="155.016" stroke="#25282B" stroke-opacity="0.16" stroke-width="4.32"/><rect x="738.3040000000001" y="111.06000000000002" width="18.816000000000003" height="40.39200000000001" fill="#6F8795" opacity="0.2"/><rect x="763.5712000000001" y="86.11200000000001" width="22.041600000000003" height="65.34000000000002" fill="#E98A2B" opacity="0.2"/><rect x="792.0640000000001" y="102.74400000000003" width="25.267200000000003" height="48.708000000000006" fill="#5577B8" opacity="0.2"/><rect x="823.7824" y="77.796" width="28.492800000000003" height="73.65600000000002" fill="#3F8A78" opacity="0.2"/><rect x="858.7264" y="94.42800000000003" width="18.816000000000003" height="57.02400000000001" fill="#626A70" opacity="0.2"/><rect x="883.9936" y="111.06000000000002" width="22.041600000000003" height="40.39200000000001" fill="#6F8795" opacity="0.2"/><rect x="912.4864" y="86.11200000000001" width="25.267200000000003" height="65.34000000000002" fill="#E98A2B" opacity="0.2"/><rect x="944.2048" y="102.74400000000003" width="28.492800000000003" height="48.708000000000006" fill="#5577B8" opacity="0.2"/><rect x="979.1487999999999" y="77.796" width="18.816000000000003" height="73.65600000000002" fill="#3F8A78" opacity="0.2"/><rect x="1004.4159999999999" y="94.42800000000003" width="22.041600000000003" height="57.02400000000001" fill="#626A70" opacity="0.2"/><rect x="1032.9088" y="111.06000000000002" width="25.267200000000003" height="40.39200000000001" fill="#6F8795" opacity="0.2"/><rect x="1064.6272" y="86.11200000000001" width="28.492800000000003" height="65.34000000000002" fill="#E98A2B" opacity="0.2"/><line x1="716.8000000000001" y1="273.81600000000003" x2="1254.4" y2="273.81600000000003" stroke="#25282B" stroke-opacity="0.16" stroke-width="4.32"/><rect x="738.3040000000001" y="221.544" width="22.041600000000003" height="48.708000000000006" fill="#5577B8" opacity="0.2"/><rect x="766.7968000000001" y="196.596" width="25.267200000000003" height="73.65600000000002" fill="#3F8A78" opacity="0.2"/><rect x="798.5152" y="213.228" width="28.492800000000003" height="57.02400000000001" fill="#626A70" opacity="0.2"/><rect x="833.4592" y="229.86" width="18.816000000000003" height="40.39200000000001" fill="#6F8795" opacity="0.2"/><rect x="858.7264" y="204.91199999999998" width="22.041600000000003" height="65.34000000000002" fill="#E98A2B" opacity="0.2"/><rect x="887.2192" y="221.544" width="25.267200000000003" height="48.708000000000006" fill="#5577B8" opacity="0.2"/><rect x="918.9376" y="196.596" width="28.492800000000003" height="73.65600000000002" fill="#3F8A78" opacity="0.2"/><rect x="953.8815999999999" y="213.228" width="18.816000000000003" height="57.02400000000001" fill="#626A70" opacity="0.2"/><rect x="979.1487999999999" y="229.86" width="22.041600000000003" height="40.39200000000001" fill="#6F8795" opacity="0.2"/><rect x="1007.6415999999999" y="204.91199999999998" width="25.267200000000003" height="65.34000000000002" fill="#E98A2B" opacity="0.2"/><rect x="1039.36" y="221.544" width="28.492800000000003" height="48.708000000000006" fill="#5577B8" opacity="0.2"/><rect x="1074.3039999999999" y="196.596" width="18.816000000000003" height="73.65600000000002" fill="#3F8A78" opacity="0.2"/><line x1="716.8000000000001" y1="392.61600000000004" x2="1254.4" y2="392.61600000000004" stroke="#25282B" stroke-opacity="0.16" stroke-width="4.32"/><rect x="738.3040000000001" y="332.0280000000001" width="25.267200000000003" height="57.02400000000001" fill="#626A70" opacity="0.2"/><rect x="770.0224000000001" y="348.6600000000001" width="28.492800000000003" height="40.39200000000001" fill="#6F8795" opacity="0.2"/><rect x="804.9664" y="323.71200000000005" width="18.816000000000003" height="65.34000000000002" fill="#E98A2B" opacity="0.2"/><rect x="830.2336" y="340.34400000000005" width="22.041600000000003" height="48.708000000000006" fill="#5577B8" opacity="0.2"/><rect x="858.7264" y="315.3960000000001" width="25.267200000000003" height="73.65600000000002" fill="#3F8A78" opacity="0.2"/><rect x="890.4448" y="332.0280000000001" width="28.492800000000003" height="57.02400000000001" fill="#626A70" opacity="0.2"/><rect x="925.3888" y="348.6600000000001" width="18.816000000000003" height="40.39200000000001" fill="#6F8795" opacity="0.2"/><rect x="950.656" y="323.71200000000005" width="22.041600000000003" height="65.34000000000002" fill="#E98A2B" opacity="0.2"/><rect x="979.1487999999999" y="340.34400000000005" width="25.267200000000003" height="48.708000000000006" fill="#5577B8" opacity="0.2"/><rect x="1010.8671999999999" y="315.3960000000001" width="28.492800000000003" height="73.65600000000002" fill="#3F8A78" opacity="0.2"/><rect x="1045.8111999999999" y="332.0280000000001" width="18.816000000000003" height="57.02400000000001" fill="#626A70" opacity="0.2"/><rect x="1071.0783999999999" y="348.6600000000001" width="22.041600000000003" height="40.39200000000001" fill="#6F8795" opacity="0.2"/><line x1="716.8000000000001" y1="511.41600000000005" x2="1254.4" y2="511.41600000000005" stroke="#25282B" stroke-opacity="0.16" stroke-width="4.32"/><rect x="738.3040000000001" y="442.51200000000006" width="28.492800000000003" height="65.34000000000002" fill="#E98A2B" opacity="0.2"/><rect x="773.248" y="459.14400000000006" width="18.816000000000003" height="48.708000000000006" fill="#5577B8" opacity="0.2"/><rect x="798.5152" y="434.1960000000001" width="22.041600000000003" height="73.65600000000002" fill="#3F8A78" opacity="0.2"/><rect x="827.008" y="450.8280000000001" width="25.267200000000003" height="57.02400000000001" fill="#626A70" opacity="0.2"/><rect x="858.7264" y="467.4600000000001" width="28.492800000000003" height="40.39200000000001" fill="#6F8795" opacity="0.2"/><rect x="893.6704" y="442.51200000000006" width="18.816000000000003" height="65.34000000000002" fill="#E98A2B" opacity="0.2"/><rect x="918.9376" y="459.14400000000006" width="22.041600000000003" height="48.708000000000006" fill="#5577B8" opacity="0.2"/><rect x="947.4304" y="434.1960000000001" width="25.267200000000003" height="73.65600000000002" fill="#3F8A78" opacity="0.2"/><rect x="979.1487999999999" y="450.8280000000001" width="28.492800000000003" height="57.02400000000001" fill="#626A70" opacity="0.2"/><rect x="1014.0927999999999" y="467.4600000000001" width="18.816000000000003" height="40.39200000000001" fill="#6F8795" opacity="0.2"/><rect x="1039.36" y="442.51200000000006" width="22.041600000000003" height="65.34000000000002" fill="#E98A2B" opacity="0.2"/><rect x="1067.8528" y="459.14400000000006" width="25.267200000000003" height="48.708000000000006" fill="#5577B8" opacity="0.2"/><path d="M 0 561.6 H 1280 V 720 H 0 Z" fill="#FFFFFF" opacity="0.82"/><path d="M 0 561.6 H 1280" stroke="#25282B" stroke-opacity="0.08" stroke-width="2.88"/></g><g data-component-id="pip_rect" data-renderer="ffmpeg_overlay" data-state="peak"><g><rect x="64" y="64" width="691.1999999999999" height="584" rx="23.36" fill="#FBF8F1" stroke="none" stroke-width="0"/><clipPath id="media-64-64"><rect x="64" y="64" width="691.1999999999999" height="584" rx="23.36"/></clipPath><g clip-path="url(#media-64-64)"><line x1="-520" y1="648" x2="64" y2="64" stroke="#626A70" stroke-opacity="0.14" stroke-width="5.6000000000000005"/><line x1="-450" y1="648" x2="134" y2="64" stroke="#626A70" stroke-opacity="0.14" stroke-width="5.6000000000000005"/><line x1="-380" y1="648" x2="204" y2="64" stroke="#626A70" stroke-opacity="0.14" stroke-width="5.6000000000000005"/><line x1="-310" y1="648" x2="274" y2="64" stroke="#626A70" stroke-opacity="0.14" stroke-width="5.6000000000000005"/><line x1="-240" y1="648" x2="344" y2="64" stroke="#626A70" stroke-opacity="0.14" stroke-width="5.6000000000000005"/><line x1="-170" y1="648" x2="414" y2="64" stroke="#626A70" stroke-opacity="0.14" stroke-width="5.6000000000000005"/><line x1="-100" y1="648" x2="484" y2="64" stroke="#626A70" stroke-opacity="0.14" stroke-width="5.6000000000000005"/><line x1="-30" y1="648" x2="554" y2="64" stroke="#626A70" stroke-opacity="0.14" stroke-width="5.6000000000000005"/><line x1="40" y1="648" x2="624" y2="64" stroke="#626A70" stroke-opacity="0.14" stroke-width="5.6000000000000005"/><line x1="110" y1="648" x2="694" y2="64" stroke="#626A70" stroke-opacity="0.14" stroke-width="5.6000000000000005"/><line x1="180" y1="648" x2="764" y2="64" stroke="#626A70" stroke-opacity="0.14" stroke-width="5.6000000000000005"/><line x1="250" y1="648" x2="834" y2="64" stroke="#626A70" stroke-opacity="0.14" stroke-width="5.6000000000000005"/><line x1="320" y1="648" x2="904" y2="64" stroke="#626A70" stroke-opacity="0.14" stroke-width="5.6000000000000005"/><line x1="390" y1="648" x2="974" y2="64" stroke="#626A70" stroke-opacity="0.14" stroke-width="5.6000000000000005"/><line x1="460" y1="648" x2="1044" y2="64" stroke="#626A70" stroke-opacity="0.14" stroke-width="5.6000000000000005"/><line x1="530" y1="648" x2="1114" y2="64" stroke="#626A70" stroke-opacity="0.14" stroke-width="5.6000000000000005"/><line x1="600" y1="648" x2="1184" y2="64" stroke="#626A70" stroke-opacity="0.14" stroke-width="5.6000000000000005"/><line x1="670" y1="648" x2="1254" y2="64" stroke="#626A70" stroke-opacity="0.14" stroke-width="5.6000000000000005"/><line x1="740" y1="648" x2="1324" y2="64" stroke="#626A70" stroke-opacity="0.14" stroke-width="5.6000000000000005"/><line x1="810" y1="648" x2="1394" y2="64" stroke="#626A70" stroke-opacity="0.14" stroke-width="5.6000000000000005"/><line x1="880" y1="648" x2="1464" y2="64" stroke="#626A70" stroke-opacity="0.14" stroke-width="5.6000000000000005"/><line x1="950" y1="648" x2="1534" y2="64" stroke="#626A70" stroke-opacity="0.14" stroke-width="5.6000000000000005"/><line x1="1020" y1="648" x2="1604" y2="64" stroke="#626A70" stroke-opacity="0.14" stroke-width="5.6000000000000005"/><line x1="1090" y1="648" x2="1674" y2="64" stroke="#626A70" stroke-opacity="0.14" stroke-width="5.6000000000000005"/><line x1="1160" y1="648" x2="1744" y2="64" stroke="#626A70" stroke-opacity="0.14" stroke-width="5.6000000000000005"/><line x1="1230" y1="648" x2="1814" y2="64" stroke="#626A70" stroke-opacity="0.14" stroke-width="5.6000000000000005"/><line x1="1300" y1="648" x2="1884" y2="64" stroke="#626A70" stroke-opacity="0.14" stroke-width="5.6000000000000005"/></g><text x="409.59999999999997" y="379.36" text-anchor="middle" font-family="Avenir Next" font-size="58.400000000000006" font-weight="700" letter-spacing="0.08em" fill="#626A70" opacity="1">A-ROLL</text></g><rect x="467.6072" y="79.94319999999999" width="271.64959999999996" height="230.91360000000003" rx="19.3536" fill="#FFFFFF" stroke="none" stroke-width="0"/><g><rect x="472.104" y="84.44" width="262.65599999999995" height="221.92000000000002" rx="8.876800000000001" fill="#FBF8F1" stroke="none" stroke-width="0"/><clipPath id="media-472-84"><rect x="472.104" y="84.44" width="262.65599999999995" height="221.92000000000002" rx="8.876800000000001"/></clipPath><g clip-path="url(#media-472-84)"><line x1="250.18399999999997" y1="306.36" x2="472.104" y2="84.44" stroke="#626A70" stroke-opacity="0.14" stroke-width="2.16"/><line x1="277.18399999999997" y1="306.36" x2="499.104" y2="84.44" stroke="#626A70" stroke-opacity="0.14" stroke-width="2.16"/><line x1="304.18399999999997" y1="306.36" x2="526.104" y2="84.44" stroke="#626A70" stroke-opacity="0.14" stroke-width="2.16"/><line x1="331.18399999999997" y1="306.36" x2="553.104" y2="84.44" stroke="#626A70" stroke-opacity="0.14" stroke-width="2.16"/><line x1="358.18399999999997" y1="306.36" x2="580.104" y2="84.44" stroke="#626A70" stroke-opacity="0.14" stroke-width="2.16"/><line x1="385.18399999999997" y1="306.36" x2="607.104" y2="84.44" stroke="#626A70" stroke-opacity="0.14" stroke-width="2.16"/><line x1="412.18399999999997" y1="306.36" x2="634.104" y2="84.44" stroke="#626A70" stroke-opacity="0.14" stroke-width="2.16"/><line x1="439.18399999999997" y1="306.36" x2="661.104" y2="84.44" stroke="#626A70" stroke-opacity="0.14" stroke-width="2.16"/><line x1="466.18399999999997" y1="306.36" x2="688.104" y2="84.44" stroke="#626A70" stroke-opacity="0.14" stroke-width="2.16"/><line x1="493.18399999999997" y1="306.36" x2="715.104" y2="84.44" stroke="#626A70" stroke-opacity="0.14" stroke-width="2.16"/><line x1="520.184" y1="306.36" x2="742.104" y2="84.44" stroke="#626A70" stroke-opacity="0.14" stroke-width="2.16"/><line x1="547.184" y1="306.36" x2="769.104" y2="84.44" stroke="#626A70" stroke-opacity="0.14" stroke-width="2.16"/><line x1="574.184" y1="306.36" x2="796.104" y2="84.44" stroke="#626A70" stroke-opacity="0.14" stroke-width="2.16"/><line x1="601.184" y1="306.36" x2="823.104" y2="84.44" stroke="#626A70" stroke-opacity="0.14" stroke-width="2.16"/><line x1="628.184" y1="306.36" x2="850.104" y2="84.44" stroke="#626A70" stroke-opacity="0.14" stroke-width="2.16"/><line x1="655.184" y1="306.36" x2="877.104" y2="84.44" stroke="#626A70" stroke-opacity="0.14" stroke-width="2.16"/><line x1="682.184" y1="306.36" x2="904.104" y2="84.44" stroke="#626A70" stroke-opacity="0.14" stroke-width="2.16"/><line x1="709.184" y1="306.36" x2="931.104" y2="84.44" stroke="#626A70" stroke-opacity="0.14" stroke-width="2.16"/><line x1="736.184" y1="306.36" x2="958.104" y2="84.44" stroke="#626A70" stroke-opacity="0.14" stroke-width="2.16"/><line x1="763.184" y1="306.36" x2="985.104" y2="84.44" stroke="#626A70" stroke-opacity="0.14" stroke-width="2.16"/><line x1="790.184" y1="306.36" x2="1012.104" y2="84.44" stroke="#626A70" stroke-opacity="0.14" stroke-width="2.16"/><line x1="817.184" y1="306.36" x2="1039.104" y2="84.44" stroke="#626A70" stroke-opacity="0.14" stroke-width="2.16"/><line x1="844.184" y1="306.36" x2="1066.104" y2="84.44" stroke="#626A70" stroke-opacity="0.14" stroke-width="2.16"/><line x1="871.184" y1="306.36" x2="1093.104" y2="84.44" stroke="#626A70" stroke-opacity="0.14" stroke-width="2.16"/><line x1="898.184" y1="306.36" x2="1120.104" y2="84.44" stroke="#626A70" stroke-opacity="0.14" stroke-width="2.16"/><line x1="925.184" y1="306.36" x2="1147.104" y2="84.44" stroke="#626A70" stroke-opacity="0.14" stroke-width="2.16"/><line x1="952.184" y1="306.36" x2="1174.104" y2="84.44" stroke="#626A70" stroke-opacity="0.14" stroke-width="2.16"/></g><text x="603.432" y="204.2768" text-anchor="middle" font-family="Avenir Next" font-size="22.192000000000004" font-weight="700" letter-spacing="0.08em" fill="#626A70" opacity="1">RECT</text></g></g><g data-role="subject-placeholder" opacity="0.92"><ellipse cx="997.12" cy="250.76319999999998" rx="64.824" ry="70.00992000000001" fill="#6F8795"/><path d="M 879.616 540.3104 Q 997.12 332.8736 1114.624 540.3104 Z" fill="#272B2F"/></g></svg>
