<svg data-reference-mode="full_bleed_video_peak" data-trigger="两个视角或内容并列" xmlns="http://www.w3.org/2000/svg" width="1280" height="720" viewBox="0 0 1280 720" data-scene-id="split_vertical_demo"><metadata>{&quot;designSystemId&quot;:&quot;dahui-video-system&quot;,&quot;designSystemVersion&quot;:&quot;1.6.0&quot;,&quot;designDigest&quot;:&quot;f34eca3e7a2e130fb91d594741efe3995ea05037ff2ab1bbea22b1d2285d918f&quot;,&quot;implementationDigest&quot;:&quot;df98a165e49f148e31c197c307c5503834f41f7a6b72b5cfa754db725996c43c&quot;,&quot;rendererCodeSha256&quot;:&quot;f157de1f801dc7b3550f70d209c4f6c14c61eadee5b5fb72a41ed97c5313c079&quot;,&quot;sceneId&quot;:&quot;split_vertical_demo&quot;,&quot;layoutId&quot;:&quot;two_panes&quot;,&quot;layoutTemplate&quot;:&quot;split&quot;,&quot;componentIds&quot;:[&quot;split_vertical&quot;],&quot;modeSelection&quot;:{&quot;show&quot;:&quot;tool-share&quot;,&quot;aspectRatio&quot;:&quot;landscape-16x9&quot;,&quot;language&quot;:&quot;zh&quot;,&quot;surface&quot;:&quot;footage&quot;,&quot;density&quot;:&quot;standard&quot;},&quot;state&quot;:&quot;peak&quot;,&quot;resolvedFonts&quot;:{&quot;display&quot;:&quot;青鸟华光标题黑体&quot;,&quot;subtitlePrimary&quot;:&quot;方正粗金陵简体&quot;,&quot;subtitleSecondary&quot;:&quot;方正粗金陵简体&quot;,&quot;label&quot;:&quot;思源黑体 CN Light&quot;,&quot;body&quot;:&quot;思源黑体 CN Light&quot;,&quot;coverTitle&quot;:&quot;Aa封神榜书&quot;}}</metadata><g data-role="editorial-footage-backdrop"><rect width="1280" height="720" fill="#F2EFE8"/><ellipse cx="345.6" cy="237.60000000000002" rx="486.4" ry="331.2" fill="#FFFFFF" opacity="0.58"/><rect x="716.8000000000001" y="57.6" width="537.6" height="475.20000000000005" fill="#FBF8F1" opacity="0.42"/><line x1="716.8000000000001" y1="155.016" x2="1254.4" y2="155.016" stroke="#25282B" stroke-opacity="0.16" stroke-width="4.32"/><rect x="738.3040000000001" y="111.06000000000002" width="18.816000000000003" height="40.39200000000001" fill="#6F8795" opacity="0.2"/><rect x="763.5712000000001" y="86.11200000000001" width="22.041600000000003" height="65.34000000000002" fill="#E98A2B" opacity="0.2"/><rect x="792.0640000000001" y="102.74400000000003" width="25.267200000000003" height="48.708000000000006" fill="#5577B8" opacity="0.2"/><rect x="823.7824" y="77.796" width="28.492800000000003" height="73.65600000000002" fill="#3F8A78" opacity="0.2"/><rect x="858.7264" y="94.42800000000003" width="18.816000000000003" height="57.02400000000001" fill="#626A70" opacity="0.2"/><rect x="883.9936" y="111.06000000000002" width="22.041600000000003" height="40.39200000000001" fill="#6F8795" opacity="0.2"/><rect x="912.4864" y="86.11200000000001" width="25.267200000000003" height="65.34000000000002" fill="#E98A2B" opacity="0.2"/><rect x="944.2048" y="102.74400000000003" width="28.492800000000003" height="48.708000000000006" fill="#5577B8" opacity="0.2"/><rect x="979.1487999999999" y="77.796" width="18.816000000000003" height="73.65600000000002" fill="#3F8A78" opacity="0.2"/><rect x="1004.4159999999999" y="94.42800000000003" width="22.041600000000003" height="57.02400000000001" fill="#626A70" opacity="0.2"/><rect x="1032.9088" y="111.06000000000002" width="25.267200000000003" height="40.39200000000001" fill="#6F8795" opacity="0.2"/><rect x="1064.6272" y="86.11200000000001" width="28.492800000000003" height="65.34000000000002" fill="#E98A2B" opacity="0.2"/><line x1="716.8000000000001" y1="273.81600000000003" x2="1254.4" y2="273.81600000000003" stroke="#25282B" stroke-opacity="0.16" stroke-width="4.32"/><rect x="738.3040000000001" y="221.544" width="22.041600000000003" height="48.708000000000006" fill="#5577B8" opacity="0.2"/><rect x="766.7968000000001" y="196.596" width="25.267200000000003" height="73.65600000000002" fill="#3F8A78" opacity="0.2"/><rect x="798.5152" y="213.228" width="28.492800000000003" height="57.02400000000001" fill="#626A70" opacity="0.2"/><rect x="833.4592" y="229.86" width="18.816000000000003" height="40.39200000000001" fill="#6F8795" opacity="0.2"/><rect x="858.7264" y="204.91199999999998" width="22.041600000000003" height="65.34000000000002" fill="#E98A2B" opacity="0.2"/><rect x="887.2192" y="221.544" width="25.267200000000003" height="48.708000000000006" fill="#5577B8" opacity="0.2"/><rect x="918.9376" y="196.596" width="28.492800000000003" height="73.65600000000002" fill="#3F8A78" opacity="0.2"/><rect x="953.8815999999999" y="213.228" width="18.816000000000003" height="57.02400000000001" fill="#626A70" opacity="0.2"/><rect x="979.1487999999999" y="229.86" width="22.041600000000003" height="40.39200000000001" fill="#6F8795" opacity="0.2"/><rect x="1007.6415999999999" y="204.91199999999998" width="25.267200000000003" height="65.34000000000002" fill="#E98A2B" opacity="0.2"/><rect x="1039.36" y="221.544" width="28.492800000000003" height="48.708000000000006" fill="#5577B8" opacity="0.2"/><rect x="1074.3039999999999" y="196.596" width="18.816000000000003" height="73.65600000000002" fill="#3F8A78" opacity="0.2"/><line x1="716.8000000000001" y1="392.61600000000004" x2="1254.4" y2="392.61600000000004" stroke="#25282B" stroke-opacity="0.16" stroke-width="4.32"/><rect x="738.3040000000001" y="332.0280000000001" width="25.267200000000003" height="57.02400000000001" fill="#626A70" opacity="0.2"/><rect x="770.0224000000001" y="348.6600000000001" width="28.492800000000003" height="40.39200000000001" fill="#6F8795" opacity="0.2"/><rect x="804.9664" y="323.71200000000005" width="18.816000000000003" height="65.34000000000002" fill="#E98A2B" opacity="0.2"/><rect x="830.2336" y="340.34400000000005" width="22.041600000000003" height="48.708000000000006" fill="#5577B8" opacity="0.2"/><rect x="858.7264" y="315.3960000000001" width="25.267200000000003" height="73.65600000000002" fill="#3F8A78" opacity="0.2"/><rect x="890.4448" y="332.0280000000001" width="28.492800000000003" height="57.02400000000001" fill="#626A70" opacity="0.2"/><rect x="925.3888" y="348.6600000000001" width="18.816000000000003" height="40.39200000000001" fill="#6F8795" opacity="0.2"/><rect x="950.656" y="323.71200000000005" width="22.041600000000003" height="65.34000000000002" fill="#E98A2B" opacity="0.2"/><rect x="979.1487999999999" y="340.34400000000005" width="25.267200000000003" height="48.708000000000006" fill="#5577B8" opacity="0.2"/><rect x="1010.8671999999999" y="315.3960000000001" width="28.492800000000003" height="73.65600000000002" fill="#3F8A78" opacity="0.2"/><rect x="1045.8111999999999" y="332.0280000000001" width="18.816000000000003" height="57.02400000000001" fill="#626A70" opacity="0.2"/><rect x="1071.0783999999999" y="348.6600000000001" width="22.041600000000003" height="40.39200000000001" fill="#6F8795" opacity="0.2"/><line x1="716.8000000000001" y1="511.41600000000005" x2="1254.4" y2="511.41600000000005" stroke="#25282B" stroke-opacity="0.16" stroke-width="4.32"/><rect x="738.3040000000001" y="442.51200000000006" width="28.492800000000003" height="65.34000000000002" fill="#E98A2B" opacity="0.2"/><rect x="773.248" y="459.14400000000006" width="18.816000000000003" height="48.708000000000006" fill="#5577B8" opacity="0.2"/><rect x="798.5152" y="434.1960000000001" width="22.041600000000003" height="73.65600000000002" fill="#3F8A78" opacity="0.2"/><rect x="827.008" y="450.8280000000001" width="25.267200000000003" height="57.02400000000001" fill="#626A70" opacity="0.2"/><rect x="858.7264" y="467.4600000000001" width="28.492800000000003" height="40.39200000000001" fill="#6F8795" opacity="0.2"/><rect x="893.6704" y="442.51200000000006" width="18.816000000000003" height="65.34000000000002" fill="#E98A2B" opacity="0.2"/><rect x="918.9376" y="459.14400000000006" width="22.041600000000003" height="48.708000000000006" fill="#5577B8" opacity="0.2"/><rect x="947.4304" y="434.1960000000001" width="25.267200000000003" height="73.65600000000002" fill="#3F8A78" opacity="0.2"/><rect x="979.1487999999999" y="450.8280000000001" width="28.492800000000003" height="57.02400000000001" fill="#626A70" opacity="0.2"/><rect x="1014.0927999999999" y="467.4600000000001" width="18.816000000000003" height="40.39200000000001" fill="#6F8795" opacity="0.2"/><rect x="1039.36" y="442.51200000000006" width="22.041600000000003" height="65.34000000000002" fill="#E98A2B" opacity="0.2"/><rect x="1067.8528" y="459.14400000000006" width="25.267200000000003" height="48.708000000000006" fill="#5577B8" opacity="0.2"/><path d="M 0 561.6 H 1280 V 720 H 0 Z" fill="#FFFFFF" opacity="0.82"/><path d="M 0 561.6 H 1280" stroke="#25282B" stroke-opacity="0.08" stroke-width="2.88"/></g><g data-component-id="split_vertical" data-renderer="ffmpeg_xstack" data-state="peak"><g><rect x="64" y="64" width="565.78" height="584" rx="22.6312" fill="#FBF8F1" stroke="none" stroke-width="0"/><clipPath id="media-64-64"><rect x="64" y="64" width="565.78" height="584" rx="22.6312"/></clipPath><g clip-path="url(#media-64-64)"><line x1="-520" y1="648" x2="64" y2="64" stroke="#626A70" stroke-opacity="0.14" stroke-width="5.44"/><line x1="-452" y1="648" x2="132" y2="64" stroke="#626A70" stroke-opacity="0.14" stroke-width="5.44"/><line x1="-384" y1="648" x2="200" y2="64" stroke="#626A70" stroke-opacity="0.14" stroke-width="5.44"/><line x1="-316" y1="648" x2="268" y2="64" stroke="#626A70" stroke-opacity="0.14" stroke-width="5.44"/><line x1="-248" y1="648" x2="336" y2="64" stroke="#626A70" stroke-opacity="0.14" stroke-width="5.44"/><line x1="-180" y1="648" x2="404" y2="64" stroke="#626A70" stroke-opacity="0.14" stroke-width="5.44"/><line x1="-112" y1="648" x2="472" y2="64" stroke="#626A70" stroke-opacity="0.14" stroke-width="5.44"/><line x1="-44" y1="648" x2="540" y2="64" stroke="#626A70" stroke-opacity="0.14" stroke-width="5.44"/><line x1="24" y1="648" x2="608" y2="64" stroke="#626A70" stroke-opacity="0.14" stroke-width="5.44"/><line x1="92" y1="648" x2="676" y2="64" stroke="#626A70" stroke-opacity="0.14" stroke-width="5.44"/><line x1="160" y1="648" x2="744" y2="64" stroke="#626A70" stroke-opacity="0.14" stroke-width="5.44"/><line x1="228" y1="648" x2="812" y2="64" stroke="#626A70" stroke-opacity="0.14" stroke-width="5.44"/><line x1="296" y1="648" x2="880" y2="64" stroke="#626A70" stroke-opacity="0.14" stroke-width="5.44"/><line x1="364" y1="648" x2="948" y2="64" stroke="#626A70" stroke-opacity="0.14" stroke-width="5.44"/><line x1="432" y1="648" x2="1016" y2="64" stroke="#626A70" stroke-opacity="0.14" stroke-width="5.44"/><line x1="500" y1="648" x2="1084" y2="64" stroke="#626A70" stroke-opacity="0.14" stroke-width="5.44"/><line x1="568" y1="648" x2="1152" y2="64" stroke="#626A70" stroke-opacity="0.14" stroke-width="5.44"/><line x1="636" y1="648" x2="1220" y2="64" stroke="#626A70" stroke-opacity="0.14" stroke-width="5.44"/><line x1="704" y1="648" x2="1288" y2="64" stroke="#626A70" stroke-opacity="0.14" stroke-width="5.44"/><line x1="772" y1="648" x2="1356" y2="64" stroke="#626A70" stroke-opacity="0.14" stroke-width="5.44"/><line x1="840" y1="648" x2="1424" y2="64" stroke="#626A70" stroke-opacity="0.14" stroke-width="5.44"/><line x1="908" y1="648" x2="1492" y2="64" stroke="#626A70" stroke-opacity="0.14" stroke-width="5.44"/><line x1="976" y1="648" x2="1560" y2="64" stroke="#626A70" stroke-opacity="0.14" stroke-width="5.44"/><line x1="1044" y1="648" x2="1628" y2="64" stroke="#626A70" stroke-opacity="0.14" stroke-width="5.44"/><line x1="1112" y1="648" x2="1696" y2="64" stroke="#626A70" stroke-opacity="0.14" stroke-width="5.44"/><line x1="1180" y1="648" x2="1764" y2="64" stroke="#626A70" stroke-opacity="0.14" stroke-width="5.44"/></g><text x="346.89" y="378.6312" text-anchor="middle" font-family="Avenir Next" font-size="56.578" font-weight="700" letter-spacing="0.08em" fill="#626A70" opacity="1">LEFT</text></g><g><rect x="650.22" y="64" width="565.78" height="584" rx="22.6312" fill="#FBF8F1" stroke="none" stroke-width="0"/><clipPath id="media-650-64"><rect x="650.22" y="64" width="565.78" height="584" rx="22.6312"/></clipPath><g clip-path="url(#media-650-64)"><line x1="66.22000000000003" y1="648" x2="650.22" y2="64" stroke="#626A70" stroke-opacity="0.14" stroke-width="5.44"/><line x1="134.22000000000003" y1="648" x2="718.22" y2="64" stroke="#626A70" stroke-opacity="0.14" stroke-width="5.44"/><line x1="202.22000000000003" y1="648" x2="786.22" y2="64" stroke="#626A70" stroke-opacity="0.14" stroke-width="5.44"/><line x1="270.22" y1="648" x2="854.22" y2="64" stroke="#626A70" stroke-opacity="0.14" stroke-width="5.44"/><line x1="338.22" y1="648" x2="922.22" y2="64" stroke="#626A70" stroke-opacity="0.14" stroke-width="5.44"/><line x1="406.22" y1="648" x2="990.22" y2="64" stroke="#626A70" stroke-opacity="0.14" stroke-width="5.44"/><line x1="474.22" y1="648" x2="1058.22" y2="64" stroke="#626A70" stroke-opacity="0.14" stroke-width="5.44"/><line x1="542.22" y1="648" x2="1126.22" y2="64" stroke="#626A70" stroke-opacity="0.14" stroke-width="5.44"/><line x1="610.22" y1="648" x2="1194.22" y2="64" stroke="#626A70" stroke-opacity="0.14" stroke-width="5.44"/><line x1="678.22" y1="648" x2="1262.22" y2="64" stroke="#626A70" stroke-opacity="0.14" stroke-width="5.44"/><line x1="746.22" y1="648" x2="1330.22" y2="64" stroke="#626A70" stroke-opacity="0.14" stroke-width="5.44"/><line x1="814.22" y1="648" x2="1398.22" y2="64" stroke="#626A70" stroke-opacity="0.14" stroke-width="5.44"/><line x1="882.22" y1="648" x2="1466.22" y2="64" stroke="#626A70" stroke-opacity="0.14" stroke-width="5.44"/><line x1="950.22" y1="648" x2="1534.22" y2="64" stroke="#626A70" stroke-opacity="0.14" stroke-width="5.44"/><line x1="1018.22" y1="648" x2="1602.22" y2="64" stroke="#626A70" stroke-opacity="0.14" stroke-width="5.44"/><line x1="1086.22" y1="648" x2="1670.22" y2="64" stroke="#626A70" stroke-opacity="0.14" stroke-width="5.44"/><line x1="1154.22" y1="648" x2="1738.22" y2="64" stroke="#626A70" stroke-opacity="0.14" stroke-width="5.44"/><line x1="1222.22" y1="648" x2="1806.22" y2="64" stroke="#626A70" stroke-opacity="0.14" stroke-width="5.44"/><line x1="1290.22" y1="648" x2="1874.22" y2="64" stroke="#626A70" stroke-opacity="0.14" stroke-width="5.44"/><line x1="1358.22" y1="648" x2="1942.22" y2="64" stroke="#626A70" stroke-opacity="0.14" stroke-width="5.44"/><line x1="1426.22" y1="648" x2="2010.22" y2="64" stroke="#626A70" stroke-opacity="0.14" stroke-width="5.44"/><line x1="1494.22" y1="648" x2="2078.2200000000003" y2="64" stroke="#626A70" stroke-opacity="0.14" stroke-width="5.44"/><line x1="1562.22" y1="648" x2="2146.2200000000003" y2="64" stroke="#626A70" stroke-opacity="0.14" stroke-width="5.44"/><line x1="1630.22" y1="648" x2="2214.2200000000003" y2="64" stroke="#626A70" stroke-opacity="0.14" stroke-width="5.44"/><line x1="1698.22" y1="648" x2="2282.2200000000003" y2="64" stroke="#626A70" stroke-opacity="0.14" stroke-width="5.44"/><line x1="1766.22" y1="648" x2="2350.2200000000003" y2="64" stroke="#626A70" stroke-opacity="0.14" stroke-width="5.44"/></g><text x="933.11" y="378.6312" text-anchor="middle" font-family="Avenir Next" font-size="56.578" font-weight="700" letter-spacing="0.08em" fill="#626A70" opacity="1">RIGHT</text></g></g></svg>
